# xmcd
#
# Track frame offsets: 
#        150
#        6501
#        24756
#        40689
#        60871
#        80947
#        101198
#        121004
#        147691
#        173853
#        190945
#        214907
#        238018
#        269382
#
# Disc length: 3878 seconds
#
# Revision: 0
# Processed by: cddbd v1.5.2PL0 Copyright (c) Steve Scherf et al.
# Submitted via: ExactAudioCopy v0.95b4
#
DISCID=c40f240e
DTITLE=Leander - Szívidomár
DYEAR=2012
DGENRE=Metal
TTITLE0=MMXII
TTITLE1=8. Fõbûn
TTITLE2=Viharom, Tavaszom
TTITLE3=Szívidomár
TTITLE4=Csak Te
TTITLE5=Szomorú Vasárnap
TTITLE6=Az Ördög Naplója
TTITLE7=Ghost Away
TTITLE8=Reborn
TTITLE9=Diamond And Coal
TTITLE10=Két Világ Közt
TTITLE11=Ma Reggel
TTITLE12=Bennem
TTITLE13=Bad Romance
EXTD=
EXTT0=
EXTT1=
EXTT2=
EXTT3=
EXTT4=
EXTT5=
EXTT6=
EXTT7=
EXTT8=
EXTT9=
EXTT10=
EXTT11=
EXTT12=
EXTT13=
PLAYORDER=
